<?xml version="1.0" encoding="UTF-8"?>
<!DOCTYPE svg PUBLIC "-//W3C//DTD SVG 1.1//EN" "http://www.w3.org/Graphics/SVG/1.1/DTD/svg11.dtd">
<!-- Creator: CorelDRAW 2020 (64-Bit) -->
<svg xmlns="http://www.w3.org/2000/svg" xml:space="preserve" width="191.881mm" height="197.126mm" version="1.1" style="shape-rendering:geometricPrecision; text-rendering:geometricPrecision; image-rendering:optimizeQuality; fill-rule:evenodd; clip-rule:evenodd"
viewBox="0 0 17600.48 18081.62"
 xmlns:xlink="http://www.w3.org/1999/xlink"
 xmlns:xodm="http://www.corel.com/coreldraw/odm/2003">
 <defs>
  <style type="text/css">
   <![CDATA[
    .fil0 {fill:#FD7C20;fill-rule:nonzero}
   ]]>
  </style>
 </defs>
 <g id="Layer_x0020_1">
  <metadata id="CorelCorpID_0Corel-Layer"/>
  <path class="fil0" d="M9068.04 8112.95c-307,346.12 -182.09,776.51 -10.53,988.7 320.54,397.29 796.08,419.86 1048.91,920.99 222.72,440.93 88.79,1241.53 -896.91,1307.74 -985.69,66.21 -1963.87,-734.38 -2171.54,-1685.47 -257.34,-1181.32 94.81,-2499.6 1486.83,-3175.29 1392.01,-675.69 3220.44,-328.07 4230.22,753.94 1044.38,1116.62 1784.79,2564.31 1285.17,4659.11 -499.62,2094.8 -2693.74,3885.6 -6129.38,3528.95 -2829.18,-293.45 -5434.13,-2853.26 -5309.23,-6717.79 121.89,-3765.2 3250.54,-6073.69 6189.57,-6538.71 3038.35,-480.06 5179.8,823.17 6430.36,1817.9 778.02,620.01 1447.7,1312.26 1640.32,1524.44 267.87,294.95 674.19,310.01 729.86,-162.53 73.74,-624.53 -314.52,-1476.29 -1220.46,-2544.76 -905.94,-1066.96 -3533.46,-3142.2 -7846.45,-2738.89 -6636.51,618.51 -8922.43,6522.17 -8469.46,10192.56 452.97,3670.4 3054.91,7709.51 9065.4,7835.92 3674.93,76.75 6514.64,-2251.31 7398,-5331.79 489.08,-1705.03 335.59,-3861.52 -698.27,-5540.96 -1389.01,-2252.81 -2973.65,-3167.78 -5140.68,-3385.99 -1735.13,-174.56 -3381.46,326.56 -4464.97,1300.22 -2212.18,1986.45 -2279.9,5569.56 25.58,7366.39 1217.45,949.58 2668.15,1124.15 3783.26,779.53 765.99,-236.27 1434.16,-644.09 1826.93,-1405.56 466.51,-905.94 421.37,-1795.33 99.32,-2492.09 -266.36,-577.87 -830.7,-1063.94 -1322.79,-1312.25 -741.91,-371.69 -1270.12,-269.36 -1559.06,55.7z"/>
 </g>
</svg>
